HIERARCHY
ROOT Hips
{
	OFFSET 0.00000 0.00000 0.00000
	CHANNELS 6 Xposition Yposition Zposition Yrotation Zrotation Xrotation 
	JOINT Lumbar
	{
		OFFSET 0 0 0
		CHANNELS 3 Zrotation Xrotation Yrotation
		JOINT Neck
		{
			OFFSET 0.00 0.2701 0.00
			CHANNELS 3 Zrotation Xrotation Yrotation
			End Site
			{
				OFFSET 0.00 0.1379 0.00
			}
		}
		JOINT RightShoulder
		{
			OFFSET 0.0119 0.2289 0.1181
			CHANNELS 3 Zrotation Xrotation Yrotation
			JOINT RightElbow
			{
				OFFSET 0.00 -0.1475 0.00
				CHANNELS 2 Zrotation Yrotation
				JOINT RightWrist
				{
					OFFSET 0.00 -0.1605 0.00
					CHANNELS 2 Zrotation Xrotation
					End Site
					{
						OFFSET 0.0040 -0.1068 0.0006
					}
				}
			}
		}
		JOINT LeftShoulder
		{
			OFFSET 0.0119 0.2289 -0.1181
			CHANNELS 3 Zrotation Xrotation Yrotation
			JOINT LeftElbow
			{
				OFFSET 0.00 -0.1475 0.00
				CHANNELS 2 Zrotation Yrotation
				JOINT LeftWrist
				{
					OFFSET 0.00 -0.1605 0.00
					CHANNELS 2 Zrotation Xrotation
					End Site
					{
						OFFSET 0.0040 -0.1068 -0.0006
					}
				}
			}
		}
	}
	JOINT RightHip
	{
		OFFSET 0.0316 -0.0424 0.0458
		CHANNELS 3 Zrotation Xrotation Yrotation
		JOINT RightKnee
		{
			OFFSET 0.00 -0.2438 0.00
			CHANNELS 1 Zrotation
			JOINT RightAnkle
			{
				OFFSET 0.00 -0.2449 0.00
				CHANNELS 3 Zrotation Xrotation Yrotation
				End Site
				{
					OFFSET 0.1237 -0.0542 0.0051
				}
			}
		}
	}
	JOINT LeftHip
	{
		OFFSET 0.0316 -0.0424 -0.0458
		CHANNELS 3 Zrotation Xrotation Yrotation
		JOINT LeftKnee
		{
			OFFSET 0.00 -0.2438 0.00
			CHANNELS 1 Zrotation
			JOINT LeftAnkle
			{
				OFFSET 0.00 -0.2449 0.00
				CHANNELS 3 Zrotation Xrotation Yrotation
				End Site
				{
					OFFSET 0.1237 -0.0542 -0.0051
				}
			}
		}
	}
}
MOTION
Frames: 34
Frame Time: 0.02
0.09682 0.57922 0.05689 172.16704 0 -4.61196 -2.62456 5.34746 -4.15759 -24.21331 9.38725 7.07169 28.66741 -30.77173 46.94524 128.27009 47.37363 25.06202 -8.86012 36.06291 10.41619 -20.33057 20.95874 -93.02441 -13.99252 5.74917 -0.79666 4.01091 2.54244 -11.16238 -0.96109 -3.16241 -7.782 -0.81753 3.25684 3.49305 -8.88865 6.28512 2.96677 2.92975
0.09899 0.57927 0.05455 172.32051 0 -4.56135 -3.08004 5.52799 -4.16901 -24.11928 9.54694 7.20186 28.48728 -30.7571 47.97306 129.09876 47.69718 24.78047 -9.2017 35.26369 10.01799 -20.29013 20.08779 -91.93964 -12.89753 5.53542 -0.87162 4.18707 2.30267 -10.72987 -1.1035 -3.10172 -7.71939 -0.42051 3.46179 3.40044 -9.27064 6.24029 2.91387 2.84968
0.1013 0.57928 0.05216 172.53811 0 -4.49583 -3.56743 5.71322 -4.1423 -24.12392 9.66172 7.30609 28.39712 -30.84614 48.74277 129.48797 48.24742 24.11624 -9.66153 34.52323 9.61077 -20.23861 19.4155 -91.01399 -12.00572 5.29255 -0.96851 4.34132 1.92304 -10.25296 -1.2278 -3.02185 -7.56233 0.04543 3.66271 3.29313 -9.7427 6.21443 2.83144 2.72067
0.10356 0.5793 0.04979 172.73342 0 -4.43907 -4.03987 5.89863 -4.13417 -24.08719 9.79593 7.42291 28.25751 -30.87497 49.59596 130.05767 48.69396 23.67588 -10.0339 33.75963 9.20942 -20.19057 18.66624 -90.02389 -11.02998 5.06438 -1.05378 4.50932 1.61049 -9.79998 -1.36092 -2.95331 -7.45524 0.48673 3.86855 3.19106 -10.18283 6.18201 2.76104 2.60811
0.1058 0.57934 0.04744 172.89908 0 -4.37344 -4.51779 6.07408 -4.12015 -24.03583 9.93415 7.53719 28.15065 -30.94953 50.57915 130.68303 49.19422 23.00923 -10.53757 32.96518 8.80228 -20.14457 17.88335 -88.96973 -9.99838 4.82679 -1.14336 4.6627 1.29039 -9.33474 -1.4919 -2.87492 -7.32616 0.90099 4.06164 3.09594 -10.58593 6.14048 2.69682 2.52007
0.1081 0.57934 0.04502 173.14243 0 -4.32307 -4.99023 6.27133 -4.10956 -24.03702 10.05356 7.6503 27.99934 -30.95978 51.23901 131.09876 49.61765 22.71961 -10.80368 32.25435 8.40503 -20.09359 17.20937 -88.09797 -9.13892 4.60283 -1.23009 4.84097 0.94932 -8.88329 -1.62263 -2.81202 -7.2171 1.38774 4.28023 2.98151 -11.08733 6.12268 2.61249 2.36951
0.11054 0.57925 0.0424 173.57931 0 -4.31684 -5.4427 6.52926 -4.11788 -24.1761 10.12999 7.76622 27.68937 -30.73313 51.01914 131.03127 49.76401 23.68435 -10.33896 31.76861 8.02984 -20.02906 16.78322 -87.69983 -8.70938 4.42766 -1.30472 5.09106 0.59314 -8.47901 -1.76016 -2.7967 -7.19115 2.05445 4.57003 2.82967 -11.83561 6.16466 2.4811 2.05606
0.11303 0.57913 0.0397 174.09304 0 -4.3268 -5.88725 6.80863 -4.13099 -24.36188 10.18934 7.88174 27.33422 -30.44451 50.49175 130.77303 49.81972 25.02618 -9.63974 31.36596 7.66613 -19.96062 16.45743 -87.4827 -8.44848 4.26708 -1.37586 5.3671 0.21835 -8.09012 -1.89739 -2.79742 -7.18677 2.79187 4.88553 2.65669 -12.67959 6.23003 2.33029 1.68192
0.1155 0.57902 0.03703 174.57531 0 -4.3305 -6.33335 7.07732 -4.14197 -24.51524 10.25793 7.99758 27.00945 -30.20862 50.14116 130.61429 49.91564 26.11678 -9.08013 30.92177 7.30151 -19.89672 16.08507 -87.18133 -8.11018 4.09757 -1.44831 5.63258 -0.15472 -7.69456 -2.03283 -2.79058 -7.16825 3.4993 5.18946 2.4853 -13.48178 6.28559 2.18741 1.33682
0.11797 0.57894 0.03439 175.04582 0 -4.32919 -6.79039 7.3505 -4.15159 -24.71869 10.31902 8.11218 26.64718 -29.87631 49.63146 130.38845 50.02422 27.51815 -8.38871 30.49446 6.91779 -19.8222 15.72367 -86.89299 -7.78075 3.93627 -1.52285 5.8923 -0.50492 -7.29536 -2.17609 -2.78429 -7.16451 4.20133 5.49321 2.34704 -14.28166 6.33875 2.04697 0.98326
0.12044 0.57878 0.03167 175.55745 0 -4.34219 -7.22094 7.61885 -4.16549 -24.82834 10.3919 8.2293 26.34989 -29.72403 49.37542 130.25941 50.0822 28.38258 -7.91 30.05206 6.57748 -19.76715 15.36116 -86.6189 -7.47164 3.76225 -1.59165 6.17021 -0.90436 -6.90894 -2.3028 -2.78083 -7.13679 4.92895 5.80295 2.13519 -15.10573 6.40173 1.89764 0.6343
0.12288 0.57844 0.02875 176.17015 0 -4.39206 -7.59148 7.8728 -4.19174 -24.66138 10.5047 8.35608 26.25447 -30.12541 49.96742 130.4779 50.01551 27.53701 -8.11624 29.53997 6.34741 -19.78363 14.96474 -86.33773 -7.16598 3.54544 -1.64772 6.49422 -1.44265 -6.54611 -2.38772 -2.78197 -7.03459 5.72221 6.12739 1.72378 -15.99063 6.49007 1.72493 0.30661
0.1253 0.57804 0.02575 176.81988 0 -4.45552 -7.93314 8.12023 -4.22195 -24.39946 10.62953 8.48504 26.2242 -30.70244 50.81405 130.79681 49.90105 26.16318 -8.53711 29.01152 6.16196 -19.81704 14.56403 -86.06458 -6.87615 3.31631 -1.69755 6.83522 -2.02707 -6.19749 -2.4554 -2.7854 -6.90918 6.53572 6.45606 1.23972 -16.89229 6.58655 1.54481 -0.01294
0.12771 0.57766 0.02279 177.44841 0 -4.51205 -8.28075 8.36799 -4.24951 -24.18404 10.74703 8.61147 26.15523 -31.17065 51.49684 131.04952 49.81185 25.12451 -8.83202 28.49474 5.96058 -19.83145 14.16807 -85.78812 -6.58551 3.09563 -1.74871 7.16723 -2.58571 -5.84758 -2.52854 -2.78736 -6.79602 7.33204 6.78002 0.78959 -17.77508 6.67675 1.3705 -0.3318
0.13022 0.57728 0.01981 178.09889 0 -4.57261 -8.65926 8.62806 -4.28108 -23.95453 10.87199 8.74447 26.12001 -31.75679 52.36813 131.38047 49.70469 23.706 -9.23648 27.96099 5.74116 -19.89244 13.7631 -85.51565 -6.27375 2.86322 -1.80637 7.50592 -3.16832 -5.47563 -2.61157 -2.79156 -6.67373 8.16624 7.11703 0.33355 -18.71106 6.77912 1.18497 -0.67125
0.13251 0.57689 0.01687 178.71046 0 -4.62743 -8.96555 8.86012 -4.30483 -23.73326 10.98424 8.86419 26.03446 -32.14281 52.91601 131.5769 49.6247 22.93741 -9.46971 27.46013 5.56984 -19.86176 13.37556 -85.23569 -6.00775 2.65235 -1.84874 7.83384 -3.70805 -5.15366 -2.67004 -2.79158 -6.56796 8.92334 7.42707 -0.1255 -19.53609 6.85723 1.02157 -0.96518
0.1342 0.57649 0.01403 179.21358 0 -4.66619 -9.08874 9.02087 -4.30918 -23.54046 11.06072 8.94766 25.76058 -31.90743 52.46977 131.36105 49.63189 24.18576 -9.15317 27.03284 5.51982 -19.56291 13.02812 -84.92072 -5.86134 2.5024 -1.8528 8.1326 -4.15096 -4.95888 -2.66379 -2.77824 -6.48348 9.47991 7.66535 -0.5894 -20.07464 6.87068 0.91887 -1.13403
0.13566 0.57608 0.01125 179.67439 0 -4.69807 -9.13852 9.15274 -4.30504 -23.36249 11.12368 9.01755 25.44036 -31.46972 51.69796 131.01035 49.66836 26.08743 -8.66251 26.64316 5.51664 -19.1734 12.69973 -84.59926 -5.76021 2.37492 -1.84122 8.41885 -4.54421 -4.81531 -2.63352 -2.76076 -6.42062 9.95457 7.87547 -1.05123 -20.49596 6.85852 0.83921 -1.25715
0.13721 0.57568 0.00846 180.14888 0 -4.73094 -9.21591 9.29479 -4.30253 -23.1887 11.19139 9.09298 25.16334 -31.14189 51.10242 130.73309 49.6916 27.62684 -8.26894 26.24929 5.49242 -18.83242 12.36781 -84.28801 -5.63923 2.23794 -1.83528 8.70769 -4.93688 -4.65291 -2.61516 -2.74592 -6.36912 10.45504 8.09598 -1.5043 -20.95476 6.85511 0.75055 -1.40197
0.13884 0.57525 0.00559 180.64807 0 -4.77319 -9.31665 9.44897 -4.30904 -22.9646 11.26528 9.17097 24.79462 -30.74446 50.39661 130.40803 49.71297 29.42301 -7.8074 25.79882 5.46901 -18.46062 12.01335 -83.94675 -5.51537 2.09697 -1.83542 9.01055 -5.42348 -4.47184 -2.5925 -2.728 -6.23277 11.00452 8.32704 -2.00012 -21.48097 6.86417 0.65541 -1.54325
0.14023 0.57489 0.00292 181.08534 0 -4.79425 -9.35157 9.57125 -4.29537 -22.85122 11.32306 9.24058 24.60563 -30.44167 49.83916 130.14902 49.74559 30.84757 -7.44266 25.47741 5.45408 -18.13184 11.71141 -83.66601 -5.4086 1.97052 -1.81914 9.2806 -5.70885 -4.34216 -2.57271 -2.71544 -6.27182 11.4321 8.5291 -2.40638 -21.83863 6.8411 0.57934 -1.68043
0.14105 0.57474 0.0008 181.3611 0 -4.75684 -9.22407 9.61129 -4.22245 -23.03002 11.33877 9.28892 24.91892 -30.44956 49.77742 130.10747 49.8027 31.07511 -7.39247 25.48578 5.45387 -17.93932 11.54143 -83.55643 -5.33297 1.8728 -1.76255 9.46651 -5.3905 -4.3372 -2.57212 -2.71899 -6.84936 11.54387 8.66019 -2.55736 -21.75981 6.73518 0.55041 -1.82356
0.14164 0.57466 -0.0011 181.57596 0 -4.6986 -9.03286 9.62049 -4.13063 -23.32184 11.339 9.32963 25.41512 -30.55928 49.87446 130.13659 49.86898 30.9091 -7.44355 25.62601 5.45969 -17.79416 11.42532 -83.50744 -5.27386 1.79016 -1.68981 9.61916 -4.88148 -4.38288 -2.57443 -2.72801 -7.59253 11.53565 8.76265 -2.61934 -21.51546 6.59792 0.53987 -1.96319
0.14233 0.57455 -0.00308 181.81911 0 -4.65085 -8.86991 9.64467 -4.05103 -23.56914 11.34667 9.37469 25.83108 -30.62105 49.89251 130.13097 49.93254 30.93529 -7.44442 25.71741 5.46088 -17.63017 11.2899 -83.42908 -5.21026 1.70441 -1.62363 9.78469 -4.50006 -4.40848 -2.57186 -2.73428 -8.21994 11.58162 8.87673 -2.72746 -21.34634 6.47518 0.52093 -2.10027
0.14304 0.57444 -0.00513 182.05825 0 -4.59842 -8.70685 9.66379 -3.95551 -23.78884 11.35156 9.41527 26.23429 -30.68111 49.92542 130.13003 49.99622 30.9346 -7.45794 25.76351 5.47228 -17.45109 11.13285 -83.35835 -5.13526 1.60327 -1.56001 9.95904 -3.94756 -4.4239 -2.58311 -2.74149 -9.01555 11.62576 8.99564 -2.81215 -21.17227 6.35015 0.5031 -2.25261
0.14365 0.57434 -0.00699 182.29179 0 -4.55103 -8.53043 9.68649 -3.88915 -24.09163 11.35948 9.46391 26.70681 -30.77377 49.97279 130.14005 50.05487 30.87919 -7.47026 25.93451 5.46249 -17.31656 11.034 -83.28605 -5.08765 1.53794 -1.48766 10.1075 -3.70235 -4.47136 -2.56704 -2.74815 -9.50425 11.64684 9.09815 -2.92373 -20.9718 6.22307 0.48685 -2.3737
0.14406 0.57425 -0.00842 182.52493 0 -4.52133 -8.32806 9.72685 -3.90478 -24.60464 11.37297 9.53342 27.33621 -30.912 49.9912 130.14423 50.15689 30.84416 -7.46589 26.41971 5.39906 -17.28782 11.07764 -83.19607 -5.10868 1.56373 -1.39321 10.19084 -4.39059 -4.59922 -2.47088 -2.75149 -9.06688 11.62871 9.1615 -3.13801 -20.73006 6.0954 0.47186 -2.4027
0.14439 0.57417 -0.00968 182.75453 0 -4.49767 -8.11574 9.77194 -3.95104 -25.19514 11.3911 9.61186 28.02665 -31.08344 50.02499 130.16065 50.24455 30.75206 -7.45631 27.02505 5.31296 -17.30372 11.17891 -83.10233 -5.15702 1.62569 -1.29098 10.24959 -5.38781 -4.7565 -2.34799 -2.7542 -8.32166 11.5927 9.2096 -3.38111 -20.4696 5.96733 0.45751 -2.40171
0.14476 0.57408 -0.011 182.98609 0 -4.47217 -7.91128 9.8149 -3.9854 -25.74532 11.41177 9.68857 28.68352 -31.25439 50.0742 130.18517 50.29677 30.63139 -7.44153 27.57485 5.23245 -17.30343 11.25692 -83.00911 -5.19452 1.67367 -1.19366 10.32091 -6.21862 -4.89728 -2.23999 -2.75751 -7.74255 11.56864 9.26544 -3.60673 -20.22427 5.84126 0.4418 -2.41922
0.14512 0.574 -0.01235 183.21476 0 -4.44222 -7.69019 9.85683 -4.01059 -26.3234 11.41321 9.75565 29.37422 -31.37005 50.03788 130.15661 50.5172 30.72057 -7.45899 28.13544 5.17084 -17.28774 11.32419 -82.92227 -5.22594 1.71185 -1.08991 10.38547 -7.15221 -5.0532 -2.12039 -2.75965 -7.05964 11.52471 9.31697 -3.84803 -19.94558 5.70647 0.43108 -2.41658
0.14549 0.57391 -0.01361 183.44845 0 -4.42313 -7.50258 9.90226 -4.06234 -26.85727 11.45481 9.84439 30.00302 -31.60376 50.17661 130.23784 50.39538 30.37287 -7.41068 28.69762 5.06591 -17.31376 11.42716 -82.82138 -5.27639 1.7788 -0.99799 10.45836 -7.94793 -5.18373 -2.01869 -2.76403 -6.51634 11.51887 9.37406 -4.06432 -19.73352 5.5901 0.41011 -2.44814
0.1459 0.57378 -0.01467 183.70522 0 -4.43371 -7.40698 9.95773 -4.18038 -27.27547 11.61645 9.99604 30.47573 -32.18667 50.83478 130.64299 49.22923 28.75753 -7.1477 29.25738 4.83405 -17.44671 11.61111 -82.67458 -5.37148 1.91637 -0.94022 10.5632 -8.28526 -5.23794 -1.97209 -2.77449 -6.44469 11.62813 9.45198 -4.20783 -19.71542 5.52531 0.3586 -2.58721
0.14633 0.57364 -0.01563 183.96572 0 -4.45486 -7.34623 10.01633 -4.32401 -27.64114 11.81641 10.16802 30.87773 -32.88082 51.66003 131.15358 47.73635 26.71975 -6.82424 29.80958 4.56193 -17.61912 11.82922 -82.51498 -5.48482 2.08144 -0.89482 10.67683 -8.47433 -5.26511 -1.94457 -2.7872 -6.52144 11.77567 9.53581 -4.32491 -19.76449 5.47904 0.2971 -2.76054
0.14675 0.57351 -0.01663 184.21958 0 -4.47062 -7.2718 10.07278 -4.45585 -28.01374 11.99228 10.32753 31.29146 -33.50306 52.38231 131.59978 46.46281 24.92752 -6.55101 30.34993 4.31639 -17.77182 12.0339 -82.36617 -5.59063 2.23398 -0.84409 10.78476 -8.7339 -5.30374 -1.90886 -2.79907 -6.52217 11.90301 9.61604 -4.45249 -19.78055 5.42417 0.24135 -2.91458
